<svg width="3823" height="378" viewBox="0 0 3823 378" fill="none" xmlns="http://www.w3.org/2000/svg">
<path d="M117 377.8C83.4001 361.534 55.5334 337 33.4001 304.2C11.5334 271.4 0.600098 233 0.600098 189C0.600098 145 11.5334 106.6 33.4001 73.8002C55.5334 41.0002 83.4001 16.4669 117 0.200195L135.8 33.0002C107.533 47.9335 84.7334 68.8669 67.4001 95.8002C50.0668 122.467 41.4001 153.534 41.4001 189C41.4001 224.467 50.0668 255.667 67.4001 282.6C84.7334 309.267 107.533 330.067 135.8 345L117 377.8Z" fill="#0E0E0E"/>
<path d="M206.053 309V29.0002H310.853C336.987 29.0002 358.453 37.1335 375.253 53.4002C392.32 69.4002 400.853 90.0669 400.853 115.4C400.853 140.734 392.32 161.8 375.253 178.6C358.187 195.4 336.72 203.8 310.853 203.8H247.253V309H206.053ZM247.253 165.8H307.653C322.587 165.8 334.853 161.134 344.453 151.8C354.053 142.2 358.853 130.067 358.853 115.4C358.853 101.267 354.053 89.6669 344.453 80.6002C334.853 71.2669 322.587 66.6002 307.653 66.6002H247.253V165.8Z" fill="#0E0E0E"/>
<path d="M500.372 314.2C478.772 314.2 461.039 308.067 447.172 295.8C433.572 283.534 426.772 267.667 426.772 248.2C426.772 229 433.572 213.534 447.172 201.8C461.039 189.8 479.305 183.8 501.972 183.8H566.372V178.2C566.372 165.134 561.972 154.334 553.172 145.8C544.639 137.267 532.905 133 517.972 133C504.372 133 493.572 136.467 485.572 143.4C477.572 150.334 472.772 158.467 471.172 167.8L435.572 157.8C440.105 139.4 449.572 124.867 463.972 114.2C478.639 103.534 496.639 98.2002 517.972 98.2002C545.439 98.2002 566.905 106.067 582.372 121.8C597.839 137.267 605.572 156.067 605.572 178.2V266.6C605.572 273 609.039 276.2 615.972 276.2H622.372V309H602.372C592.239 309 584.372 306.2 578.772 300.6C573.172 295 570.372 287.8 570.372 279V270.6H562.372C559.439 283.934 552.505 294.6 541.572 302.6C530.639 310.334 516.905 314.2 500.372 314.2ZM467.172 247.4C467.172 257.534 471.039 265.667 478.772 271.8C486.772 277.667 496.505 280.6 507.972 280.6C527.439 280.6 541.972 274.734 551.572 263C561.439 251.267 566.372 237.267 566.372 221V215.4H506.372C494.105 215.4 484.505 218.334 477.572 224.2C470.639 229.8 467.172 237.534 467.172 247.4Z" fill="#0E0E0E"/>
<path d="M662.553 309V103.4H702.153V147H710.553C714.287 134.734 721.62 123.8 732.553 114.2C743.753 104.6 758.687 99.8002 777.353 99.8002V142.6H763.753C744.02 142.6 728.82 148.6 718.153 160.6C707.753 172.6 702.553 187.534 702.553 205.4V309H662.553Z" fill="#0E0E0E"/>
<path d="M878.106 314.2C856.506 314.2 838.773 308.067 824.906 295.8C811.306 283.534 804.506 267.667 804.506 248.2C804.506 229 811.306 213.534 824.906 201.8C838.773 189.8 857.04 183.8 879.706 183.8H944.106V178.2C944.106 165.134 939.706 154.334 930.906 145.8C922.373 137.267 910.64 133 895.706 133C882.106 133 871.306 136.467 863.306 143.4C855.306 150.334 850.506 158.467 848.906 167.8L813.306 157.8C817.84 139.4 827.306 124.867 841.706 114.2C856.373 103.534 874.373 98.2002 895.706 98.2002C923.173 98.2002 944.64 106.067 960.106 121.8C975.573 137.267 983.306 156.067 983.306 178.2V266.6C983.306 273 986.773 276.2 993.706 276.2H1000.11V309H980.106C969.973 309 962.106 306.2 956.506 300.6C950.906 295 948.106 287.8 948.106 279V270.6H940.106C937.173 283.934 930.24 294.6 919.306 302.6C908.373 310.334 894.64 314.2 878.106 314.2ZM844.906 247.4C844.906 257.534 848.773 265.667 856.506 271.8C864.506 277.667 874.24 280.6 885.706 280.6C905.173 280.6 919.706 274.734 929.306 263C939.173 251.267 944.106 237.267 944.106 221V215.4H884.106C871.84 215.4 862.24 218.334 855.306 224.2C848.373 229.8 844.906 237.534 844.906 247.4Z" fill="#0E0E0E"/>
<path d="M1040.29 309V103.4H1080.29V140.2H1088.29C1091.75 128.467 1098.69 118.6 1109.09 110.6C1119.49 102.334 1132.15 98.2002 1147.09 98.2002C1169.75 98.2002 1187.49 105.534 1200.29 120.2C1213.35 134.6 1219.89 152.2 1219.89 173V309H1179.89V184.6C1179.89 170.467 1175.22 158.867 1165.89 149.8C1156.82 140.734 1145.49 136.2 1131.89 136.2C1116.69 136.2 1104.29 141.267 1094.69 151.4C1085.09 161.267 1080.29 173.8 1080.29 189V309H1040.29Z" fill="#0E0E0E"/>
<path d="M1348.64 309C1332.11 309 1318.64 304.334 1308.24 295C1297.84 285.667 1292.64 271.8 1292.64 253.4V137.4H1256.64V103.4H1293.44V57.0002H1332.64V103.4H1393.84V137.4H1332.64V251.4C1332.64 266.067 1339.71 273.4 1353.84 273.4H1391.04V309H1348.64Z" fill="#0E0E0E"/>
<path d="M1439.12 309V9.00018H1479.12V140.2H1487.12C1490.58 127.934 1497.52 117.934 1507.92 110.2C1518.58 102.2 1531.38 98.2002 1546.32 98.2002C1569.25 98.2002 1587.25 105.534 1600.32 120.2C1613.38 134.6 1619.92 152.2 1619.92 173V309H1579.92V184.6C1579.92 170.734 1575.12 159.267 1565.52 150.2C1556.18 140.867 1544.72 136.2 1531.12 136.2C1515.92 136.2 1503.38 141.267 1493.52 151.4C1483.92 161.267 1479.12 173.8 1479.12 189V309H1439.12Z" fill="#0E0E0E"/>
<path d="M1763.04 314.2C1732.38 314.2 1707.44 304.067 1688.24 283.8C1669.04 263.267 1659.44 237 1659.44 205C1659.44 173.267 1669.18 147.534 1688.64 127.8C1708.38 108.067 1732.91 98.2002 1762.24 98.2002C1792.38 98.2002 1816.38 108.2 1834.24 128.2C1852.11 147.934 1860.51 171.934 1859.44 200.2L1858.64 219.4H1699.04C1701.44 237.8 1708.11 252.334 1719.04 263C1730.24 273.667 1744.91 279 1763.04 279C1788.38 279 1807.58 268.867 1820.64 248.6L1850.24 267.8C1841.71 282.2 1829.98 293.534 1815.04 301.8C1800.11 310.067 1782.78 314.2 1763.04 314.2ZM1699.84 185.8H1820.64C1820.11 170.867 1814.38 158.2 1803.44 147.8C1792.51 137.4 1778.78 132.2 1762.24 132.2C1745.44 132.2 1731.58 137.134 1720.64 147C1709.98 156.6 1703.04 169.534 1699.84 185.8Z" fill="#0E0E0E"/>
<path d="M1977.99 314.2C1954.79 314.2 1935.59 308.6 1920.39 297.4C1905.19 286.2 1895.32 271 1890.79 251.8L1927.19 242.2C1929.85 254.467 1935.85 263.8 1945.19 270.2C1954.79 276.334 1966.12 279.4 1979.19 279.4C1993.85 279.4 2005.19 276.734 2013.19 271.4C2021.19 266.067 2025.19 259.267 2025.19 251C2025.19 237.667 2015.45 228.867 1995.99 224.6L1960.39 217C1922.52 208.734 1903.59 189.134 1903.59 158.2C1903.59 141.134 1910.65 126.867 1924.79 115.4C1939.19 103.934 1958.25 98.2002 1981.99 98.2002C2003.05 98.2002 2020.92 103.534 2035.59 114.2C2050.25 124.867 2059.59 139.267 2063.59 157.4L2027.99 167C2026.12 156.6 2021.05 148.2 2012.79 141.8C2004.52 135.4 1994.25 132.2 1981.99 132.2C1969.72 132.2 1959.99 134.734 1952.79 139.8C1945.59 144.6 1941.99 150.734 1941.99 158.2C1941.99 171 1951.72 179.4 1971.19 183.4L2005.99 191C2044.65 199.267 2063.99 219.267 2063.99 251C2063.99 269.934 2056.12 285.267 2040.39 297C2024.92 308.467 2004.12 314.2 1977.99 314.2Z" fill="#0E0E0E"/>
<path d="M2203.67 314.2C2173 314.2 2148.07 304.067 2128.87 283.8C2109.67 263.267 2100.07 237 2100.07 205C2100.07 173.267 2109.8 147.534 2129.27 127.8C2149 108.067 2173.54 98.2002 2202.87 98.2002C2233 98.2002 2257 108.2 2274.87 128.2C2292.74 147.934 2301.14 171.934 2300.07 200.2L2299.27 219.4H2139.67C2142.07 237.8 2148.74 252.334 2159.67 263C2170.87 273.667 2185.54 279 2203.67 279C2229 279 2248.2 268.867 2261.27 248.6L2290.87 267.8C2282.34 282.2 2270.6 293.534 2255.67 301.8C2240.74 310.067 2223.4 314.2 2203.67 314.2ZM2140.47 185.8H2261.27C2260.74 170.867 2255 158.2 2244.07 147.8C2233.14 137.4 2219.4 132.2 2202.87 132.2C2186.07 132.2 2172.2 137.134 2161.27 147C2150.6 156.6 2143.67 169.534 2140.47 185.8Z" fill="#0E0E0E"/>
<path d="M2543.39 314.2C2515.93 314.2 2492.73 307.667 2473.79 294.6C2455.13 281.534 2442.86 263.134 2436.99 239.4L2475.39 227.8C2479.13 243 2486.73 254.867 2498.19 263.4C2509.93 271.667 2524.99 275.8 2543.39 275.8C2561.79 275.8 2576.46 271.667 2587.39 263.4C2598.33 254.867 2603.79 244.2 2603.79 231.4C2603.79 209.267 2589.66 194.867 2561.39 188.2L2519.79 178.2C2499.53 173.667 2482.59 165.134 2468.99 152.6C2455.66 140.067 2448.99 122.734 2448.99 100.6C2448.99 78.7335 2457.53 60.4668 2474.59 45.8002C2491.66 31.1335 2514.46 23.8002 2542.99 23.8002C2568.06 23.8002 2589.26 29.9335 2606.59 42.2002C2623.93 54.2002 2634.99 70.4669 2639.79 91.0002L2602.19 102.2C2598.99 89.9335 2592.06 80.0669 2581.39 72.6002C2570.99 64.8669 2558.19 61.0002 2542.99 61.0002C2526.19 61.0002 2513.13 65.0002 2503.79 73.0002C2494.46 80.7335 2489.79 89.9335 2489.79 100.6C2489.79 120.6 2503.13 133.534 2529.79 139.4L2571.39 149.8C2594.33 155.4 2612.46 165 2625.79 178.6C2639.13 191.934 2645.79 209.534 2645.79 231.4C2645.79 254.334 2636.59 273.934 2618.19 290.2C2599.79 306.2 2574.86 314.2 2543.39 314.2Z" fill="#0E0E0E"/>
<path d="M2771.69 309C2755.16 309 2741.69 304.334 2731.29 295C2720.89 285.667 2715.69 271.8 2715.69 253.4V137.4H2679.69V103.4H2716.49V57.0002H2755.69V103.4H2816.89V137.4H2755.69V251.4C2755.69 266.067 2762.76 273.4 2776.89 273.4H2814.09V309H2771.69Z" fill="#0E0E0E"/>
<path d="M2930.56 314.2C2907.9 314.2 2890.16 307 2877.36 292.6C2864.56 277.934 2858.16 260.2 2858.16 239.4V103.4H2898.16V227.8C2898.16 242.734 2902.7 254.6 2911.76 263.4C2920.83 271.934 2932.3 276.2 2946.16 276.2C2961.36 276.2 2973.76 271.267 2983.36 261.4C2992.96 251.534 2997.76 239 2997.76 223.8V103.4H3037.76V309H2997.76V272.2H2989.76C2985.5 285.267 2978.3 295.534 2968.16 303C2958.3 310.467 2945.76 314.2 2930.56 314.2Z" fill="#0E0E0E"/>
<path d="M3171.02 314.2C3143.82 314.2 3121.29 304.067 3103.42 283.8C3085.82 263.267 3077.02 237.534 3077.02 206.6C3077.02 175.4 3085.82 149.534 3103.42 129C3121.29 108.467 3143.82 98.2002 3171.02 98.2002C3187.82 98.2002 3202.09 102.2 3213.82 110.2C3225.82 117.934 3234.09 127.934 3238.62 140.2H3246.62V9.00018H3286.22V309H3246.62V272.2H3238.22C3234.22 285 3226.22 295.267 3214.22 303C3202.49 310.467 3188.09 314.2 3171.02 314.2ZM3117.82 206.6C3117.82 228.2 3123.96 245.534 3136.22 258.6C3148.49 271.4 3164.22 277.8 3183.42 277.8C3202.36 277.8 3217.82 271 3229.82 257.4C3242.09 243.8 3248.22 226.867 3248.22 206.6C3248.22 184.467 3241.82 167 3229.02 154.2C3216.49 141.134 3201.02 134.6 3182.62 134.6C3163.96 134.6 3148.49 141.4 3136.22 155C3123.96 168.334 3117.82 185.534 3117.82 206.6Z" fill="#0E0E0E"/>
<path d="M3340.25 309V103.4H3380.25V309H3340.25ZM3339.85 67.4002V20.2002H3380.25V67.4002H3339.85Z" fill="#0E0E0E"/>
<path d="M3529.95 314.2C3498.49 314.2 3472.49 304.067 3451.95 283.8C3431.69 263.534 3421.55 237.667 3421.55 206.2C3421.55 174.734 3431.69 148.867 3451.95 128.6C3472.49 108.334 3498.49 98.2002 3529.95 98.2002C3560.89 98.2002 3586.62 108.467 3607.15 129C3627.95 149.267 3638.35 175 3638.35 206.2C3638.35 237.667 3627.95 263.534 3607.15 283.8C3586.62 304.067 3560.89 314.2 3529.95 314.2ZM3462.35 206.2C3462.35 227.534 3468.62 244.867 3481.15 258.2C3493.95 271.267 3510.22 277.8 3529.95 277.8C3549.69 277.8 3565.82 271.267 3578.35 258.2C3591.15 244.867 3597.55 227.534 3597.55 206.2C3597.55 185.4 3591.15 168.334 3578.35 155C3565.55 141.4 3549.42 134.6 3529.95 134.6C3510.49 134.6 3494.35 141.4 3481.55 155C3468.75 168.334 3462.35 185.4 3462.35 206.2Z" fill="#0E0E0E"/>
<path d="M3686.89 345C3715.16 330.067 3737.96 309.267 3755.29 282.6C3772.63 255.667 3781.29 224.467 3781.29 189C3781.29 153.534 3772.63 122.467 3755.29 95.8002C3737.96 68.8669 3715.16 47.9335 3686.89 33.0002L3705.69 0.200195C3739.29 16.4669 3767.03 41.0002 3788.89 73.8002C3811.03 106.6 3822.09 145 3822.09 189C3822.09 233 3811.03 271.4 3788.89 304.2C3767.03 337 3739.29 361.534 3705.69 377.8L3686.89 345Z" fill="#0E0E0E"/>
</svg>
