<svg width="903" height="101" viewBox="0 0 903 101" fill="none" xmlns="http://www.w3.org/2000/svg">
<path d="M0.328369 99.0001V2.03515H36.621C45.671 2.03515 53.105 4.85176 58.9229 10.485C64.8332 16.0258 67.7883 23.1828 67.7883 31.9558C67.7883 40.7288 64.8332 48.0243 58.9229 53.8422C53.0127 59.6601 45.5787 62.569 36.621 62.569H14.5961V99.0001H0.328369ZM14.5961 49.4095H35.5128C40.6843 49.4095 44.9323 47.7934 48.2568 44.5612C51.5813 41.2367 53.2435 37.0349 53.2435 31.9558C53.2435 27.0614 51.5813 23.0442 48.2568 19.9044C44.9323 16.6723 40.6843 15.0562 35.5128 15.0562H14.5961V49.4095Z" fill="black"/>
<path d="M68.3986 99.0001V97.1994L100.536 2.03515H124.638L156.637 97.1994V99.0001H142.231L135.027 77.5293H89.8695L82.6664 99.0001H68.3986ZM94.3021 64.0927H130.595L113.834 14.225H110.925L94.3021 64.0927Z" fill="black"/>
<path d="M170.775 99.0001V2.03515H207.898C217.78 2.03515 225.537 4.57471 231.17 9.65383C236.803 14.733 239.62 21.1973 239.62 29.0468C239.62 34.4953 238.188 39.1589 235.326 43.0375C232.463 46.8237 228.538 49.1324 223.551 49.9636V52.734C227.522 53.8422 231.031 56.2894 234.079 60.0756C237.219 63.7695 238.789 68.8025 238.789 75.1745V99.0001H224.244V76.2826C224.244 71.8499 222.905 68.3869 220.227 65.8935C217.549 63.4001 213.67 62.1534 208.591 62.1534H185.042V99.0001H170.775ZM185.042 48.9939H207.206C212.285 48.9939 216.487 47.3778 219.811 44.1457C223.228 40.9135 224.936 36.804 224.936 31.8173C224.936 27.0152 223.32 23.0442 220.088 19.9044C216.856 16.7646 212.377 15.1947 206.652 15.1947H185.042V48.9939Z" fill="black"/>
<path d="M251.155 99.0001V97.1994L283.292 2.03515H307.395L339.393 97.1994V99.0001H324.987L317.784 77.5293H272.626L265.423 99.0001H251.155ZM277.058 64.0927H313.351L296.59 14.225H293.681L277.058 64.0927Z" fill="black"/>
<path d="M353.531 99.0001V2.03515H380.127L415.865 86.8102H418.497V2.03515H432.488V99.0001H405.476L370.153 14.225H367.522V99.0001H353.531Z" fill="black"/>
<path d="M480.839 99.0001V15.3332H449.948V2.03515H526.274V15.3332H495.245V99.0001H480.839Z" fill="black"/>
<path d="M604.954 99.0001V56.4741H558.133V99.0001H543.727V2.03515H558.133V42.899H604.954V2.03515H619.36V99.0001H604.954Z" fill="black"/>
<path d="M643.966 99.0001V2.03515H702.283V15.1947H658.234V43.176H697.574V56.0585H658.234V85.9791H703.807V99.0001H643.966Z" fill="black"/>
<path d="M755.377 100.801C745.865 100.801 737.831 98.5384 731.274 94.0134C724.81 89.4883 720.562 83.1164 718.53 74.8974L731.828 70.8803C733.121 76.1441 735.753 80.2536 739.724 83.2087C743.787 86.0715 749.005 87.5029 755.377 87.5029C761.749 87.5029 766.828 86.0715 770.614 83.2087C774.401 80.2536 776.294 76.5597 776.294 72.127C776.294 64.4621 771.399 59.4754 761.611 57.1667L747.204 53.7036C740.186 52.1337 734.322 49.1786 729.612 44.8383C724.995 40.4979 722.686 34.4953 722.686 26.8305C722.686 19.258 725.641 12.9322 731.551 7.85305C737.462 2.77393 745.357 0.234375 755.239 0.234375C763.919 0.234375 771.261 2.35837 777.263 6.60636C783.266 10.762 787.098 16.3952 788.761 23.506L775.74 27.3846C774.632 23.1366 772.231 19.7197 768.537 17.134C764.935 14.4559 760.502 13.1169 755.239 13.1169C749.421 13.1169 744.896 14.5021 741.664 17.2725C738.431 19.9506 736.815 23.1366 736.815 26.8305C736.815 33.7566 741.433 38.2354 750.667 40.2671L765.074 43.8686C773.016 45.8079 779.295 49.1324 783.913 53.8422C788.53 58.4595 790.839 64.5545 790.839 72.127C790.839 80.0689 787.653 86.8564 781.281 92.4896C774.909 98.0305 766.274 100.801 755.377 100.801Z" fill="black"/>
<path d="M811.166 99.0001V2.03515H869.483V15.1947H825.433V43.176H864.773V56.0585H825.433V85.9791H871.007V99.0001H811.166Z" fill="black"/>
<path d="M884.681 8.88914C884.681 7.2068 885.082 5.7858 885.882 4.62614C886.682 3.4828 887.809 2.73147 889.263 2.37214L889.973 4.72414C889.042 4.9528 888.316 5.4183 887.793 6.12064C887.287 6.8393 887.033 7.76214 887.033 8.88914C887.033 10.0161 887.287 10.9145 887.793 11.5841C888.316 12.2538 888.969 12.5886 889.753 12.5886C891.109 12.5886 891.991 11.723 892.399 9.99164L893.011 7.44364C893.289 6.2023 893.812 5.16514 894.579 4.33214C895.347 3.51547 896.409 3.10714 897.764 3.10714C899.104 3.10714 900.223 3.6298 901.121 4.67514C902.019 5.72047 902.468 7.11697 902.468 8.86464C902.468 10.4 902.093 11.6985 901.341 12.7601C900.606 13.8218 899.61 14.4996 898.352 14.7936L897.666 12.4906C898.418 12.2946 899.022 11.87 899.479 11.2166C899.953 10.5796 900.19 9.79564 900.19 8.86464C900.19 7.83564 899.945 7.0353 899.455 6.46364C898.981 5.89197 898.418 5.60614 897.764 5.60614C896.539 5.60614 895.747 6.4228 895.388 8.05614L894.751 10.6041C894.408 12.0088 893.82 13.1195 892.987 13.9361C892.17 14.7528 891.092 15.1611 889.753 15.1611C888.348 15.1611 887.148 14.5976 886.151 13.4706C885.171 12.3436 884.681 10.8165 884.681 8.88914Z" fill="black"/>
<path d="M885 22.7066L899.798 22.7066V17.2431H902.15V30.7426H899.798V25.2546L885 25.2546V22.7066Z" fill="black"/>
<path d="M884.681 40.2486C884.681 38.2559 885.278 36.6471 886.47 35.4221C887.679 34.1971 889.222 33.5846 891.1 33.5846H902.15V36.1326H891.125C889.851 36.1326 888.846 36.4919 888.111 37.2106C887.393 37.9456 887.033 38.9582 887.033 40.2486C887.033 41.5062 887.401 42.5107 888.136 43.2621C888.871 44.0134 889.867 44.3891 891.125 44.3891H902.15V46.9126L891.1 46.9126C889.238 46.9126 887.703 46.2919 886.494 45.0506C885.286 43.8256 884.681 42.2249 884.681 40.2486Z" fill="black"/>
<path d="M885 50.2767H887.254V51.9917H899.896V50.2767H902.15V57.3327C902.15 59.9624 901.333 62.0776 899.7 63.6782C898.067 65.2952 896.025 66.1037 893.575 66.1037C890.994 66.1037 888.92 65.3034 887.352 63.7027C885.784 62.1184 885 59.9951 885 57.3327V50.2767ZM887.303 54.5152V57.1122C887.303 59.0886 887.85 60.6402 888.944 61.7672C890.055 62.9106 891.599 63.4822 893.575 63.4822C895.486 63.4822 897.005 62.9106 898.132 61.7672C899.275 60.6239 899.847 59.0722 899.847 57.1122V54.5152H887.303Z" fill="black"/>
<path d="M885 68.4615H887.327V71.7445H899.822V68.4615H902.15V77.551H899.822V74.268H887.327V77.551H885V68.4615Z" fill="black"/>
<path d="M887.229 95.0252C885.531 93.3429 884.681 91.2359 884.681 88.7042C884.681 86.1725 885.523 84.0737 887.205 82.4077C888.904 80.7417 891.027 79.9087 893.575 79.9087C896.09 79.9087 898.197 80.7417 899.896 82.4077C901.611 84.09 902.468 86.197 902.468 88.7287C902.468 91.2604 901.611 93.3592 899.896 95.0252C898.181 96.7075 896.074 97.5487 893.575 97.5487C891.06 97.5487 888.944 96.7075 887.229 95.0252ZM893.575 82.5057C891.68 82.5057 890.12 83.1019 888.895 84.2942C887.687 85.4865 887.082 86.9647 887.082 88.7287C887.082 90.4927 887.687 91.9627 888.895 93.1387C890.12 94.331 891.68 94.9272 893.575 94.9272C895.453 94.9272 897.005 94.331 898.23 93.1387C899.455 91.9627 900.067 90.4927 900.067 88.7287C900.067 86.9647 899.455 85.4865 898.23 84.2942C897.005 83.1019 895.453 82.5057 893.575 82.5057Z" fill="black"/>
</svg>
