<svg width="189" height="28" viewBox="0 0 189 28" fill="none" xmlns="http://www.w3.org/2000/svg">
<path d="M7.84922 27.3C5.74922 26.2833 4.00755 24.75 2.62422 22.7C1.25755 20.65 0.574219 18.25 0.574219 15.5C0.574219 12.75 1.25755 10.35 2.62422 8.3C4.00755 6.25 5.74922 4.71667 7.84922 3.7L9.02422 5.75C7.25755 6.68333 5.83255 7.99167 4.74922 9.675C3.66589 11.3417 3.12422 13.2833 3.12422 15.5C3.12422 17.7167 3.66589 19.6667 4.74922 21.35C5.83255 23.0167 7.25755 24.3167 9.02422 25.25L7.84922 27.3Z" fill="black"/>
<path d="M13.415 23V5.5H19.965C21.5984 5.5 22.94 6.00833 23.99 7.025C25.0567 8.025 25.59 9.31667 25.59 10.9C25.59 12.4833 25.0567 13.8 23.99 14.85C22.9234 15.9 21.5817 16.425 19.965 16.425H15.99V23H13.415ZM15.99 14.05H19.765C20.6984 14.05 21.465 13.7583 22.065 13.175C22.665 12.575 22.965 11.8167 22.965 10.9C22.965 10.0167 22.665 9.29167 22.065 8.725C21.465 8.14167 20.6984 7.85 19.765 7.85H15.99V14.05Z" fill="black"/>
<path d="M25.7002 23V22.675L31.5002 5.5H35.8502L41.6252 22.675V23H39.0252L37.7252 19.125H29.5752L28.2752 23H25.7002ZM30.3752 16.7H36.9252L33.9002 7.7H33.3752L30.3752 16.7Z" fill="black"/>
<path d="M44.1768 23V5.5H50.8768C52.6601 5.5 54.0601 5.95833 55.0768 6.875C56.0934 7.79167 56.6018 8.95833 56.6018 10.375C56.6018 11.3583 56.3434 12.2 55.8268 12.9C55.3101 13.5833 54.6018 14 53.7018 14.15V14.65C54.4184 14.85 55.0518 15.2917 55.6018 15.975C56.1684 16.6417 56.4518 17.55 56.4518 18.7V23H53.8268V18.9C53.8268 18.1 53.5851 17.475 53.1018 17.025C52.6184 16.575 51.9184 16.35 51.0018 16.35H46.7518V23H44.1768ZM46.7518 13.975H50.7518C51.6684 13.975 52.4268 13.6833 53.0268 13.1C53.6434 12.5167 53.9518 11.775 53.9518 10.875C53.9518 10.0083 53.6601 9.29167 53.0768 8.725C52.4934 8.15833 51.6851 7.875 50.6518 7.875H46.7518V13.975Z" fill="black"/>
<path d="M58.6836 23V22.675L64.4836 5.5H68.8336L74.6086 22.675V23H72.0086L70.7086 19.125H62.5586L61.2586 23H58.6836ZM63.3586 16.7H69.9086L66.8836 7.7H66.3586L63.3586 16.7Z" fill="black"/>
<path d="M77.1602 23V5.5H81.9602L88.4102 20.8H88.8852V5.5H91.4102V23H86.5352L80.1602 7.7H79.6852V23H77.1602Z" fill="black"/>
<path d="M100.136 23V7.9H94.5613V5.5H108.336V7.9H102.736V23H100.136Z" fill="black"/>
<path d="M122.536 23V15.325H114.086V23H111.486V5.5H114.086V12.875H122.536V5.5H125.136V23H122.536Z" fill="black"/>
<path d="M129.577 23V5.5H140.102V7.875H132.152V12.925H139.252V15.25H132.152V20.65H140.377V23H129.577Z" fill="black"/>
<path d="M149.684 23.325C147.968 23.325 146.518 22.9167 145.334 22.1C144.168 21.2833 143.401 20.1333 143.034 18.65L145.434 17.925C145.668 18.875 146.143 19.6167 146.859 20.15C147.593 20.6667 148.534 20.925 149.684 20.925C150.834 20.925 151.751 20.6667 152.434 20.15C153.118 19.6167 153.459 18.95 153.459 18.15C153.459 16.7667 152.576 15.8667 150.809 15.45L148.209 14.825C146.943 14.5417 145.884 14.0083 145.034 13.225C144.201 12.4417 143.784 11.3583 143.784 9.975C143.784 8.60833 144.318 7.46667 145.384 6.55C146.451 5.63333 147.876 5.175 149.659 5.175C151.226 5.175 152.551 5.55833 153.634 6.325C154.718 7.075 155.409 8.09167 155.709 9.375L153.359 10.075C153.159 9.30833 152.726 8.69167 152.059 8.225C151.409 7.74167 150.609 7.5 149.659 7.5C148.609 7.5 147.793 7.75 147.209 8.25C146.626 8.73333 146.334 9.30833 146.334 9.975C146.334 11.225 147.168 12.0333 148.834 12.4L151.434 13.05C152.868 13.4 154.001 14 154.834 14.85C155.668 15.6833 156.084 16.7833 156.084 18.15C156.084 19.5833 155.509 20.8083 154.359 21.825C153.209 22.825 151.651 23.325 149.684 23.325Z" fill="black"/>
<path d="M159.753 23V5.5H170.278V7.875H162.328V12.925H169.428V15.25H162.328V20.65H170.553V23H159.753Z" fill="black"/>
<path d="M173.985 25.25C175.752 24.3167 177.177 23.0167 178.26 21.35C179.343 19.6667 179.885 17.7167 179.885 15.5C179.885 13.2833 179.343 11.3417 178.26 9.675C177.177 7.99167 175.752 6.68333 173.985 5.75L175.16 3.7C177.26 4.71667 178.993 6.25 180.36 8.3C181.743 10.35 182.435 12.75 182.435 15.5C182.435 18.25 181.743 20.65 180.36 22.7C178.993 24.75 177.26 26.2833 175.16 27.3L173.985 25.25Z" fill="black"/>
<path d="M184 2.34876C184 1.87151 184.113 1.4684 184.338 1.13942C184.563 0.815078 184.879 0.601937 185.288 0.5L185.488 1.16722C185.226 1.23209 185.022 1.36415 184.875 1.56339C184.732 1.76726 184.661 2.02905 184.661 2.34876C184.661 2.66848 184.732 2.92332 184.875 3.11329C185.022 3.30326 185.205 3.39825 185.426 3.39825C185.807 3.39825 186.055 3.15267 186.17 2.66152L186.342 1.9387C186.42 1.58655 186.567 1.29233 186.782 1.05602C186.998 0.824345 187.297 0.708507 187.678 0.708507C188.054 0.708507 188.369 0.856779 188.621 1.15332C188.874 1.44987 189 1.84603 189 2.34181C189 2.77736 188.894 3.14572 188.683 3.4469C188.477 3.74808 188.197 3.94037 187.843 4.02377L187.65 3.37045C187.861 3.31485 188.031 3.19438 188.16 3.00904C188.293 2.82833 188.36 2.60592 188.36 2.34181C188.36 2.0499 188.291 1.82286 188.153 1.66069C188.02 1.49852 187.861 1.41743 187.678 1.41743C187.333 1.41743 187.111 1.64911 187.01 2.11246L186.831 2.83528C186.734 3.23376 186.569 3.54884 186.335 3.78051C186.105 4.01219 185.802 4.12803 185.426 4.12803C185.031 4.12803 184.693 3.96817 184.413 3.64846C184.138 3.32875 184 2.89552 184 2.34876Z" fill="black"/>
<path d="M184.09 6.26854H188.249V4.71863H188.911V8.54821H188.249V6.99136H184.09V6.26854Z" fill="black"/>
<path d="M184 11.2449C184 10.6796 184.168 10.2232 184.503 9.87571C184.843 9.5282 185.276 9.35444 185.805 9.35444H188.911V10.0773H185.811C185.453 10.0773 185.171 10.1792 184.964 10.3831C184.762 10.5916 184.661 10.8789 184.661 11.2449C184.661 11.6017 184.765 11.8866 184.971 12.0998C185.178 12.3129 185.458 12.4195 185.811 12.4195H188.911V13.1354H185.805C185.281 13.1354 184.849 12.9593 184.51 12.6072C184.17 12.2596 184 11.8056 184 11.2449Z" fill="black"/>
<path d="M184.09 14.0897H184.723V14.5762H188.277V14.0897H188.911V16.0914C188.911 16.8374 188.681 17.4374 188.222 17.8915C187.763 18.3502 187.189 18.5796 186.5 18.5796C185.775 18.5796 185.192 18.3525 184.751 17.8985C184.31 17.449 184.09 16.8467 184.09 16.0914V14.0897ZM184.737 15.2921V16.0288C184.737 16.5895 184.891 17.0297 185.198 17.3494C185.511 17.6737 185.945 17.8359 186.5 17.8359C187.037 17.8359 187.464 17.6737 187.781 17.3494C188.102 17.025 188.263 16.5849 188.263 16.0288V15.2921H184.737Z" fill="black"/>
<path d="M184.09 19.2484H184.744V20.1798H188.256V19.2484H188.911V21.827H188.256V20.8956H184.744V21.827H184.09V19.2484Z" fill="black"/>
<path d="M184.716 26.7841C184.239 26.3069 184 25.7092 184 24.991C184 24.2728 184.237 23.6774 184.709 23.2048C185.187 22.7321 185.784 22.4958 186.5 22.4958C187.207 22.4958 187.799 22.7321 188.277 23.2048C188.759 23.682 189 24.2797 189 24.9979C189 25.7161 188.759 26.3115 188.277 26.7841C187.795 27.2614 187.203 27.5 186.5 27.5C185.793 27.5 185.198 27.2614 184.716 26.7841ZM186.5 23.2326C185.967 23.2326 185.529 23.4017 185.185 23.7399C184.845 24.0782 184.675 24.4975 184.675 24.9979C184.675 25.4983 184.845 25.9153 185.185 26.249C185.529 26.5872 185.967 26.7563 186.5 26.7563C187.028 26.7563 187.464 26.5872 187.809 26.249C188.153 25.9153 188.325 25.4983 188.325 24.9979C188.325 24.4975 188.153 24.0782 187.809 23.7399C187.464 23.4017 187.028 23.2326 186.5 23.2326Z" fill="black"/>
</svg>
