<svg xmlns="http://www.w3.org/2000/svg" baseProfile="tiny-ps" version="1.2" viewBox="0 0 400 400">
  <title>Paranthese Studio</title>
  <desc>Logo officiel de Paranthese Studio</desc>
  <path d="M0 0H400V400H0Z" fill="#F9F8F6"/>
  <path d="M233.544 96.4121C255.522 96.4121 273.343 104.478 286.962 120.608L287.604 121.357C300.995 137.154 307.676 157.098 307.676 181.152C307.676 205.383 300.675 225.577 286.649 241.696L286.648 241.695C272.824 257.822 255.11 265.893 233.544 265.893C220.777 265.893 209.659 262.961 200.208 257.081L200.196 257.074L200.197 257.073C191.059 251.05 184.585 243.067 180.785 233.132H175.388V327.356H143.5V100.468H175.388V129.172H181.1C184.901 119.442 191.375 111.563 200.509 105.543L200.513 105.54C209.963 99.4499 220.98 96.4121 233.544 96.4121ZM224.184 125.804C209.784 125.804 197.901 130.987 188.5 141.361L188.055 141.859C178.785 152.365 174.14 165.451 174.14 181.152C174.14 198.318 178.997 211.804 188.661 221.674C198.339 231.557 210.376 236.5 224.808 236.5C239.233 236.5 251.162 231.355 260.632 221.062C270.101 210.769 274.852 197.481 274.852 181.152C274.852 164.404 270.099 151.015 260.636 140.935C251.17 130.851 239.033 125.804 224.184 125.804Z" fill="none" stroke="#0E0E0E"/>
  <path d="M211.299 96.4121C233.277 96.4121 251.098 104.478 264.717 120.608L265.359 121.357C278.75 137.154 285.431 157.098 285.431 181.152C285.431 205.383 278.43 225.577 264.404 241.696L264.403 241.695C250.579 257.822 232.865 265.893 211.299 265.893C198.532 265.893 187.413 262.961 177.963 257.081L177.951 257.074L177.952 257.073C168.814 251.05 162.34 243.067 158.54 233.132H153.143V327.356H121.255V100.468H153.143V129.172H158.854C162.655 119.442 169.129 111.563 178.264 105.543L178.268 105.54C187.718 99.4499 198.735 96.4121 211.299 96.4121ZM201.938 125.804C187.539 125.804 175.656 130.987 166.255 141.361L165.81 141.859C156.54 152.365 151.895 165.451 151.895 181.152C151.895 198.318 156.752 211.804 166.416 221.674C176.094 231.557 188.131 236.5 202.562 236.5C216.987 236.5 228.917 231.355 238.387 221.062C247.856 210.769 252.606 197.481 252.606 181.152C252.606 164.404 247.854 151.015 238.391 140.935C228.924 130.851 216.787 125.804 201.938 125.804Z" fill="#0E0E0E" stroke="#0E0E0E"/>
</svg>
