<svg xmlns="http://www.w3.org/2000/svg" version="1.1" xmlns:xlink="http://www.w3.org/1999/xlink" width="1000" height="1000"><style>
    #light-icon {
      display: inline;
    }
    #dark-icon {
      display: none;
    }

    @media (prefers-color-scheme: dark) {
      #light-icon {
        display: none;
      }
      #dark-icon {
        display: inline;
      }
    }
  </style><g id="light-icon"><svg xmlns="http://www.w3.org/2000/svg" version="1.1" xmlns:xlink="http://www.w3.org/1999/xlink" width="1000" height="1000"><g clip-path="url(#SvgjsClipPath1142)"><rect width="1000" height="1000" fill="#f9f8f6"></rect><g transform="matrix(32.142857142857146,0,0,32.142857142857146,49.99999999999994,258.92857142857144)"><svg xmlns="http://www.w3.org/2000/svg" version="1.1" xmlns:xlink="http://www.w3.org/1999/xlink" width="28" height="15"><svg width="28" height="15" viewBox="0 0 28 15" fill="none" xmlns="http://www.w3.org/2000/svg">
<path d="M22.7526 13.3499C23.8126 12.7899 24.6676 12.0099 25.3176 11.0099C25.9676 9.99992 26.2926 8.82992 26.2926 7.49992C26.2926 6.16992 25.9676 5.00492 25.3176 4.00492C24.6676 2.99492 23.8126 2.20992 22.7526 1.64992L23.4576 0.419922C24.7176 1.02992 25.7576 1.94992 26.5776 3.17992C27.4076 4.40992 27.8226 5.84992 27.8226 7.49992C27.8226 9.14992 27.4076 10.5899 26.5776 11.8199C25.7576 13.0499 24.7176 13.9699 23.4576 14.5799L22.7526 13.3499Z" fill="#0E0E0E"></path>
<path d="M5.64893 9.06492C5.30559 9.06492 5.01559 8.98326 4.77893 8.81992C4.54559 8.65659 4.39226 8.42659 4.31893 8.12992L4.79893 7.98492C4.84559 8.17492 4.94059 8.32326 5.08393 8.42992C5.23059 8.53326 5.41893 8.58492 5.64893 8.58492C5.87893 8.58492 6.06226 8.53326 6.19893 8.42992C6.33559 8.32326 6.40393 8.18992 6.40393 8.02992C6.40393 7.75326 6.22726 7.57326 5.87393 7.48992L5.35393 7.36492C5.10059 7.30826 4.88893 7.20159 4.71893 7.04492C4.55226 6.88826 4.46893 6.67159 4.46893 6.39492C4.46893 6.12159 4.57559 5.89326 4.78893 5.70992C5.00226 5.52659 5.28726 5.43492 5.64393 5.43492C5.95726 5.43492 6.22226 5.51159 6.43893 5.66492C6.65559 5.81492 6.79393 6.01826 6.85393 6.27492L6.38393 6.41492C6.34393 6.26159 6.25726 6.13826 6.12393 6.04492C5.99393 5.94826 5.83393 5.89992 5.64393 5.89992C5.43393 5.89992 5.27059 5.94992 5.15393 6.04992C5.03726 6.14659 4.97893 6.26159 4.97893 6.39492C4.97893 6.64492 5.14559 6.80659 5.47893 6.87992L5.99893 7.00992C6.28559 7.07992 6.51226 7.19992 6.67893 7.36992C6.84559 7.53659 6.92893 7.75659 6.92893 8.02992C6.92893 8.31659 6.81393 8.56159 6.58393 8.76492C6.35393 8.96492 6.04226 9.06492 5.64893 9.06492Z" fill="#0E0E0E"></path>
<path d="M8.46881 8.99992V5.97992H7.35381V5.49992H10.1088V5.97992H8.98881V8.99992H8.46881Z" fill="#0E0E0E"></path>
<path d="M12.0488 9.06492C11.6421 9.06492 11.3138 8.94326 11.0638 8.69992C10.8138 8.45326 10.6888 8.13826 10.6888 7.75492V5.49992H11.2088V7.74992C11.2088 8.00992 11.2821 8.21492 11.4288 8.36492C11.5788 8.51159 11.7855 8.58492 12.0488 8.58492C12.3055 8.58492 12.5105 8.50992 12.6638 8.35992C12.8171 8.20992 12.8938 8.00659 12.8938 7.74992V5.49992H13.4088V7.75492C13.4088 8.13492 13.2821 8.44826 13.0288 8.69492C12.7788 8.94159 12.4521 9.06492 12.0488 9.06492Z" fill="#0E0E0E"></path>
<path d="M14.0954 8.99992V8.53992H14.4454V5.95992H14.0954V5.49992H15.5354C16.072 5.49992 16.5037 5.66659 16.8304 5.99992C17.1604 6.33326 17.3254 6.74992 17.3254 7.24992C17.3254 7.77659 17.162 8.19992 16.8354 8.51992C16.512 8.83992 16.0787 8.99992 15.5354 8.99992H14.0954ZM14.9604 8.52992H15.4904C15.8937 8.52992 16.2104 8.41826 16.4404 8.19492C16.6737 7.96826 16.7904 7.65326 16.7904 7.24992C16.7904 6.85992 16.6737 6.54992 16.4404 6.31992C16.207 6.08659 15.8904 5.96992 15.4904 5.96992H14.9604V8.52992Z" fill="#0E0E0E"></path>
<path d="M17.8065 8.99992V8.52492H18.4765V5.97492H17.8065V5.49992H19.6615V5.97492H18.9915V8.52492H19.6615V8.99992H17.8065Z" fill="#0E0E0E"></path>
<path d="M23.2277 8.54492C22.8844 8.89159 22.4544 9.06492 21.9377 9.06492C21.421 9.06492 20.9927 8.89326 20.6527 8.54992C20.3127 8.20326 20.1427 7.76992 20.1427 7.24992C20.1427 6.73659 20.3127 6.30659 20.6527 5.95992C20.996 5.60992 21.426 5.43492 21.9427 5.43492C22.4594 5.43492 22.8877 5.60992 23.2277 5.95992C23.571 6.30992 23.7427 6.73992 23.7427 7.24992C23.7427 7.76326 23.571 8.19492 23.2277 8.54492ZM20.6727 7.24992C20.6727 7.63659 20.7944 7.95492 21.0377 8.20492C21.281 8.45159 21.5827 8.57492 21.9427 8.57492C22.3027 8.57492 22.6027 8.45159 22.8427 8.20492C23.086 7.95492 23.2077 7.63659 23.2077 7.24992C23.2077 6.86659 23.086 6.54992 22.8427 6.29992C22.6027 6.04992 22.3027 5.92492 21.9427 5.92492C21.5827 5.92492 21.281 6.04992 21.0377 6.29992C20.7944 6.54992 20.6727 6.86659 20.6727 7.24992Z" fill="#0E0E0E"></path>
<path d="M4.54762 14.5799C3.28762 13.9699 2.24262 13.0499 1.41262 11.8199C0.592617 10.5899 0.182617 9.14992 0.182617 7.49992C0.182617 5.84992 0.592617 4.40992 1.41262 3.17992C2.24262 1.94992 3.28762 1.02992 4.54762 0.419922L5.25262 1.64992C4.19262 2.20992 3.33762 2.99492 2.68762 4.00492C2.03762 5.00492 1.71262 6.16992 1.71262 7.49992C1.71262 8.82992 2.03762 9.99992 2.68762 11.0099C3.33762 12.0099 4.19262 12.7899 5.25262 13.3499L4.54762 14.5799Z" fill="#0E0E0E"></path>
</svg></svg></g></g><defs><clipPath id="SvgjsClipPath1142"><rect width="1000" height="1000" x="0" y="0" rx="150" ry="150"></rect></clipPath></defs></svg></g><g id="dark-icon"><svg xmlns="http://www.w3.org/2000/svg" version="1.1" xmlns:xlink="http://www.w3.org/1999/xlink" width="1000" height="1000"><g><g transform="matrix(35.714285714285715,0,0,35.714285714285715,0,232.1428571428571)" style="filter: invert(100%)"><svg xmlns="http://www.w3.org/2000/svg" version="1.1" xmlns:xlink="http://www.w3.org/1999/xlink" width="28" height="15"><svg width="28" height="15" viewBox="0 0 28 15" fill="none" xmlns="http://www.w3.org/2000/svg">
<path d="M22.7526 13.3499C23.8126 12.7899 24.6676 12.0099 25.3176 11.0099C25.9676 9.99992 26.2926 8.82992 26.2926 7.49992C26.2926 6.16992 25.9676 5.00492 25.3176 4.00492C24.6676 2.99492 23.8126 2.20992 22.7526 1.64992L23.4576 0.419922C24.7176 1.02992 25.7576 1.94992 26.5776 3.17992C27.4076 4.40992 27.8226 5.84992 27.8226 7.49992C27.8226 9.14992 27.4076 10.5899 26.5776 11.8199C25.7576 13.0499 24.7176 13.9699 23.4576 14.5799L22.7526 13.3499Z" fill="#0E0E0E"></path>
<path d="M5.64893 9.06492C5.30559 9.06492 5.01559 8.98326 4.77893 8.81992C4.54559 8.65659 4.39226 8.42659 4.31893 8.12992L4.79893 7.98492C4.84559 8.17492 4.94059 8.32326 5.08393 8.42992C5.23059 8.53326 5.41893 8.58492 5.64893 8.58492C5.87893 8.58492 6.06226 8.53326 6.19893 8.42992C6.33559 8.32326 6.40393 8.18992 6.40393 8.02992C6.40393 7.75326 6.22726 7.57326 5.87393 7.48992L5.35393 7.36492C5.10059 7.30826 4.88893 7.20159 4.71893 7.04492C4.55226 6.88826 4.46893 6.67159 4.46893 6.39492C4.46893 6.12159 4.57559 5.89326 4.78893 5.70992C5.00226 5.52659 5.28726 5.43492 5.64393 5.43492C5.95726 5.43492 6.22226 5.51159 6.43893 5.66492C6.65559 5.81492 6.79393 6.01826 6.85393 6.27492L6.38393 6.41492C6.34393 6.26159 6.25726 6.13826 6.12393 6.04492C5.99393 5.94826 5.83393 5.89992 5.64393 5.89992C5.43393 5.89992 5.27059 5.94992 5.15393 6.04992C5.03726 6.14659 4.97893 6.26159 4.97893 6.39492C4.97893 6.64492 5.14559 6.80659 5.47893 6.87992L5.99893 7.00992C6.28559 7.07992 6.51226 7.19992 6.67893 7.36992C6.84559 7.53659 6.92893 7.75659 6.92893 8.02992C6.92893 8.31659 6.81393 8.56159 6.58393 8.76492C6.35393 8.96492 6.04226 9.06492 5.64893 9.06492Z" fill="#0E0E0E"></path>
<path d="M8.46881 8.99992V5.97992H7.35381V5.49992H10.1088V5.97992H8.98881V8.99992H8.46881Z" fill="#0E0E0E"></path>
<path d="M12.0488 9.06492C11.6421 9.06492 11.3138 8.94326 11.0638 8.69992C10.8138 8.45326 10.6888 8.13826 10.6888 7.75492V5.49992H11.2088V7.74992C11.2088 8.00992 11.2821 8.21492 11.4288 8.36492C11.5788 8.51159 11.7855 8.58492 12.0488 8.58492C12.3055 8.58492 12.5105 8.50992 12.6638 8.35992C12.8171 8.20992 12.8938 8.00659 12.8938 7.74992V5.49992H13.4088V7.75492C13.4088 8.13492 13.2821 8.44826 13.0288 8.69492C12.7788 8.94159 12.4521 9.06492 12.0488 9.06492Z" fill="#0E0E0E"></path>
<path d="M14.0954 8.99992V8.53992H14.4454V5.95992H14.0954V5.49992H15.5354C16.072 5.49992 16.5037 5.66659 16.8304 5.99992C17.1604 6.33326 17.3254 6.74992 17.3254 7.24992C17.3254 7.77659 17.162 8.19992 16.8354 8.51992C16.512 8.83992 16.0787 8.99992 15.5354 8.99992H14.0954ZM14.9604 8.52992H15.4904C15.8937 8.52992 16.2104 8.41826 16.4404 8.19492C16.6737 7.96826 16.7904 7.65326 16.7904 7.24992C16.7904 6.85992 16.6737 6.54992 16.4404 6.31992C16.207 6.08659 15.8904 5.96992 15.4904 5.96992H14.9604V8.52992Z" fill="#0E0E0E"></path>
<path d="M17.8065 8.99992V8.52492H18.4765V5.97492H17.8065V5.49992H19.6615V5.97492H18.9915V8.52492H19.6615V8.99992H17.8065Z" fill="#0E0E0E"></path>
<path d="M23.2277 8.54492C22.8844 8.89159 22.4544 9.06492 21.9377 9.06492C21.421 9.06492 20.9927 8.89326 20.6527 8.54992C20.3127 8.20326 20.1427 7.76992 20.1427 7.24992C20.1427 6.73659 20.3127 6.30659 20.6527 5.95992C20.996 5.60992 21.426 5.43492 21.9427 5.43492C22.4594 5.43492 22.8877 5.60992 23.2277 5.95992C23.571 6.30992 23.7427 6.73992 23.7427 7.24992C23.7427 7.76326 23.571 8.19492 23.2277 8.54492ZM20.6727 7.24992C20.6727 7.63659 20.7944 7.95492 21.0377 8.20492C21.281 8.45159 21.5827 8.57492 21.9427 8.57492C22.3027 8.57492 22.6027 8.45159 22.8427 8.20492C23.086 7.95492 23.2077 7.63659 23.2077 7.24992C23.2077 6.86659 23.086 6.54992 22.8427 6.29992C22.6027 6.04992 22.3027 5.92492 21.9427 5.92492C21.5827 5.92492 21.281 6.04992 21.0377 6.29992C20.7944 6.54992 20.6727 6.86659 20.6727 7.24992Z" fill="#0E0E0E"></path>
<path d="M4.54762 14.5799C3.28762 13.9699 2.24262 13.0499 1.41262 11.8199C0.592617 10.5899 0.182617 9.14992 0.182617 7.49992C0.182617 5.84992 0.592617 4.40992 1.41262 3.17992C2.24262 1.94992 3.28762 1.02992 4.54762 0.419922L5.25262 1.64992C4.19262 2.20992 3.33762 2.99492 2.68762 4.00492C2.03762 5.00492 1.71262 6.16992 1.71262 7.49992C1.71262 8.82992 2.03762 9.99992 2.68762 11.0099C3.33762 12.0099 4.19262 12.7899 5.25262 13.3499L4.54762 14.5799Z" fill="#0E0E0E"></path>
</svg></svg></g></g></svg></g></svg>